<svg xmlns="http://www.w3.org/2000/svg" viewBox="0 0 64 64" role="img" aria-label="Global Payments Docs Helper icon">
  <defs>
    <linearGradient id="bg" x1="8" y1="6" x2="58" y2="60" gradientUnits="userSpaceOnUse">
      <stop offset="0" stop-color="#0b4a9e"/>
      <stop offset="1" stop-color="#0a78b0"/>
    </linearGradient>
  </defs>
  <rect x="2" y="2" width="60" height="60" rx="14" fill="url(#bg)"/>
  <path d="M19 14h19l8 8v28a4 4 0 0 1-4 4H19a4 4 0 0 1-4-4V18a4 4 0 0 1 4-4z" fill="#ffffff"/>
  <path d="M38 14v8h8" fill="none" stroke="#d4e6ff" stroke-width="2.2" stroke-linecap="round" stroke-linejoin="round"/>
  <rect x="22" y="28" width="17" height="2.8" rx="1.4" fill="#8cb3e8"/>
  <rect x="22" y="34" width="13.5" height="2.8" rx="1.4" fill="#8cb3e8"/>
  <path d="M45 33c5.5 0 10 3.8 10 8.5 0 4.7-4.5 8.5-10 8.5-1.4 0-2.7-.2-4-.7l-4.6 2.5 1.6-4.2c-1.8-1.5-3-3.7-3-6.1 0-4.7 4.5-8.5 10-8.5z" fill="#20d6c7"/>
  <circle cx="41.4" cy="41.5" r="1.3" fill="#0f3f68"/>
  <circle cx="45.1" cy="41.5" r="1.3" fill="#0f3f68"/>
  <circle cx="48.8" cy="41.5" r="1.3" fill="#0f3f68"/>
</svg>
